<svg xmlns="http://www.w3.org/2000/svg" viewBox="0 0 1000 1000">
  <rect width="1000" height="1000" rx="50" ry="50" fill="#016fd0"/>
  <path d="M598.08,500.08,500,603.39l-98.08-103.32L500,396.77Z" fill="#fff"/>
  <path d="M500,396.77l98.08,103.32L696.15,396.77H598.08ZM401.92,396.77H303.85l98.08,103.32Z" fill="#fff"/>
  <path d="M893.87,603.39h-98.1L696.15,396.77H794.2Z" fill="#fff"/>
  <path d="M303.85,603.39h98.08l98.08-103.32L401.92,396.77Z" fill="#fff"/>
  <path d="M106.13,603.39l98.07-103.31L303.85,603.39H106.13Z" fill="#fff"/>
  <path d="M106.13,396.77H303.85L204.2,293.45,106.13,396.77Z" fill="#fff"/>
  <path d="M696.15,396.77l99.62,103.31L893.87,396.77H696.15Z" fill="#fff"/>
  <path d="M696.15,603.39l-98.08-103.32-98.08,103.32Z" fill="#fff"/>
  <path d="M598.08,603.39H794.2L696.15,706.71Z" fill="#fff"/>
  <path d="M500,706.71l98.08-103.32H401.92Z" fill="#fff"/>
  <path d="M303.85,603.39,204.2,706.71l196.1-103.32Z" fill="#fff"/>
</svg> 