<svg xmlns="http://www.w3.org/2000/svg" viewBox="0 0 1000 1000">
  <path d="M140.55,500c0-22.77,5.69-43.63,17.08-62.59,11.38-19.56,26.58-34.76,46.44-46.14,19.26-11.39,40.42-17.08,62.89-17.08,27.78,0,51.85,8.31,71.71,25.23,19.86,16.62,32.44,38.29,37.84,64.41h-23.05c-5.1-20.16-16.19-36.77-33.04-49.43-16.92-12.65-35.97-19.26-56.92-19.26-18.66,0-35.97,4.8-51.55,14.07-15.59,9.28-27.78,22.17-36.77,38.29-8.61,16.32-13.11,34.17-13.11,53.73s4.5,37.41,13.11,53.73c8.98,16.12,21.17,29.01,36.77,38.29,15.58,9.27,32.89,14.07,51.55,14.07,21.17,0,40.42-6.6,57.51-19.85,17.09-13.41,28.07-30.3,32.74-50.62h23.05c-5.1,25.83-17.38,47.33-37.24,64.41-19.85,16.62-44.04,25.23-71.8,25.23-22.47,0-43.63-5.69-62.89-17.08-19.86-11.38-35.06-26.58-46.44-46.14-11.39-18.96-17.08-39.82-17.08-62.59Z" />
  <path d="M380.8,500c0-22.77,5.69-43.63,17.08-62.59,11.38-19.56,26.58-34.76,46.14-46.14,19.26-11.39,40.72-17.08,62.89-17.08,21.17,0,41.2,5.1,59.08,15.28,18.16,9.88,32.44,24.55,42.33,43.63V378.7h22.17v242.6h-22.17v-55.17c-9.88,19.26-24.16,33.92-42.33,43.93-17.87,10.18-37.9,15.28-59.08,15.28-22.17,0-43.63-5.69-62.89-17.08-19.56-11.38-34.76-26.88-46.14-46.14-11.38-18.95-17.08-39.82-17.08-62.59Zm227.52,0c0-18.95-4.5-36.77-13.11-53.73-8.61-16.12-20.57-29.01-35.97-38.29-15.28-9.27-32.44-14.07-51.25-14.07s-35.67,4.8-51.25,14.07c-15.28,9.28-27.48,22.17-36.17,38.29-8.61,16.32-13.11,34.17-13.11,53.73s4.5,37.41,13.11,53.73c8.69,16.12,20.87,29.01,36.17,38.29,15.58,9.27,32.44,14.07,51.25,14.07s35.97-4.8,51.25-14.07c15.39-9.28,27.37-22.17,35.97-38.29,8.6-16.32,13.11-34.17,13.11-53.73Z" />
  <path d="M629.64,378.7h22.18v55.47c9.58-19.26,23.35-33.92,41.8-44.22,18.36-10.48,39.22-15.58,62.59-15.58v22.47h-5.69c-27.48,0-50.33,9.28-68.69,27.48-18.36,18.36-27.48,43.04-27.48,74.41v123.86h-24.71V378.7Z" />
  <path d="M912.45,604.77c-4.8,6.89-11.39,12.29-19.86,16.32-8.38,3.9-17.67,5.99-27.47,5.99-20.57,0-37.3-6.29-50.03-18.96-12.89-12.59-19.26-28.78-19.26-48.94,0-19.26,6.59-34.76,19.85-46.74,13.41-11.98,31.84-17.97,54.82-17.97h41.21v-20.57c0-15.28-4.65-27.18-13.71-35.67-9.13-8.61-21.47-12.89-36.47-12.89-14.07,0-25.82,3.9-35.37,11.97-9.28,7.79-13.71,17.67-13.71,29.6h-22.77l-0.3-1.5c-0.6-17.38,6.29-32.44,20.57-45.24,14.37-12.89,32.73-19.26,55.17-19.26,22.77,0,41.21,6.29,55.17,18.96,14.07,12.59,21.17,29.6,21.17,51.25v104.9c0,19.84,2.4,35.96,7.49,48.34v1.8h-26.37l-1.2-21.17Zm-45.53-10.18c13.7,0,26.27-3.6,37.84-10.77,11.68-7.19,20.27-16.47,25.53-27.78v-42.04h-41.51c-16.02,0-28.97,4.21-38.59,12.29-9.58,8.09-14.37,18.66-14.37,31.85,0,12.59,4.35,22.77,12.89,30.58,8.6,7.78,18.95,11.37,31.26,11.37l-3.01-5.49h-1.5l2.99,5.99,3.91,0.8,1.8-1.8h-17.26Z" />
</svg> 