<svg xmlns="http://www.w3.org/2000/svg" viewBox="0 0 1000 324.68">
  <path fill="#00579f" d="M651.17,0l-75.47,224.12h96.14L747.31,0Z" />
  <path fill="#00579f" d="M501.17,0c-28.37,0-52.92,15.14-52.92,43.51,0,33.75,44.2,35.78,44.2,52.91,0,7.11-8.12,13.21-22.29,13.21-19.24,0-33.77-8.12-33.77-8.12l-6.09,38.83s16.24,7.1,40.85,7.1c32.74,0,59.01-16.24,59.01-45.54,0-34.77-44.71-37.81-44.71-53.93,0-5.58,6.61-11.68,19.82-11.68,15.22,0,27.93,6.1,27.93,6.1l6.09-36.3s-13.72-6.09-38.83-6.09Z" />
  <path fill="#00579f" d="M851.45,0c-19.24,0-33.76,10.16-33.76,10.16L811.62,35.39s13.21-10.66,31.44-10.66c8.63,0,14.22,4.56,14.22,11.17,0,6.09-1.01,8.13-1.01,8.13h-9.65c-32.74,0-68.52,14.22-68.52,58.99,0,24.32,15.22,39.33,36.44,39.33,18.24,0,30.93-10.66,30.93-10.66l-0.51,9.14h41.36l18.24-114.44c0-29.37-24.81-36.39-53.1-36.39Zm8.63,94.6c0,12.7-8.12,29.95-24.81,29.95-8.63,0-13.71-6.6-13.71-14.21,0-12.7,7.61-28.94,27.35-28.94h11.17Z" />
  <path fill="#00579f" d="M961.14,3.55h-40.85l-24.81,219.56h42.88l25.29-219.56Z" />
  <path fill="#faa61a" d="M355.97,3.55l-64.59,156.51-28.47-131.99c-2.6-13.6-12.61-24.52-33.18-24.52H80.76l-1.52,5.43s21.08,4.3,45.67,18.89l61.39,175.24h52.5l95.17-199.56z" />
  <path fill="#faa61a" d="M0,324.68s193.4-48.67,461.91-220.07c-1.02,0.51-5.08,2.54-8.63,4.06,1.52-3.55,3.05-7.61,4.57-11.67-126.48,59.83-262.36,108.5-393.86,152.44l-64.0,75.24Z" />
</svg> 